<svg id="Layer_2" data-name="Layer 2" xmlns="http://www.w3.org/2000/svg" width="99.864" height="28.222" viewBox="0 0 99.864 28.222">
  <g id="Layer_1" data-name="Layer 1">
    <path id="Path_1" data-name="Path 1" d="M93.194.395A142.132,142.132,0,0,0,74.573.216C67.467.428,60.351.838,53.281,1.531c-3.331.327-6.641.742-9.946,1.276-2.043.327-5.946.4-7.351,2.114a.79.79,0,0,0-.195.77.848.848,0,0,0,.583.569,4,4,0,0,0,1.691.13.921.921,0,0,0,.7-.423.819.819,0,0,0,.046-.786,35.884,35.884,0,0,1,5.5-.8q4.2-.621,8.485-1.011c5.241-.482,10.5-.737,15.765-.939,5.349-.207,10.7-.3,16.051-.164,2.3.058,4.633.082,6.937.226a17.3,17.3,0,0,1,3.658.535,5.7,5.7,0,0,1,1.425.515c.511.819-.649,1.358-1.2,1.584C91.079,6.915,86.1,7.493,81.465,8.36c-.342.067-.69.125-1.022.188-3.811-3.092-17.17-2.442-29.2-1.074V7.267c.107-1.926-2.932-1.854-3.111,0a5.712,5.712,0,0,1-.056.588c-8.485,1.069-15.77,2.374-17.7,2.764q-8.369,1.7-16.516,4.214Q9.9,16.061,6,17.434c-2.11.742-3.923,1.214-5.619,2.7a1.336,1.336,0,0,0-.22,1.637C.755,23.073,2.313,23.116,3.605,23c2.473-.207,4.96-.588,7.433-.872,5.987-.679,11.949-1.609,17.88-2.567q9.563-1.531,19.116-3.111c.046.342.092.684.153,1.031.036.212.082.424.128.636-1.155.144-2.309.289-3.458.443-3.413.458-6.784,1.165-10.217,1.58-2.4.294-4.874.482-6.881,1.869a1.407,1.407,0,0,0-.649,1.594,1.517,1.517,0,0,0,1.416,1.065c2.554.212,5.252-.438,7.8-.761,2.406-.3,4.812-.626,7.208-1q2.907-.448,5.8-.963a15.717,15.717,0,0,1,.761,4.749,1.676,1.676,0,0,0,2.488,1.348l.434-.217a1.78,1.78,0,0,0,.955-1.57,15.8,15.8,0,0,0-1.022-4.97l2.161-.409a1.67,1.67,0,0,0,.736.482,6.378,6.378,0,0,0,2.815.043c1.533-.149,3.142-.212,4.71-.255a3.96,3.96,0,0,0-1.022.443,1.421,1.421,0,0,0,0,2.5c2.335,1.141,5.849.173,8.322-.077a24.041,24.041,0,0,0,4.133-.279,5.034,5.034,0,0,0-.511.828c-.868,1.662,1.773,3.13,2.646,1.445.541-1.04,1.7-1.854,1.732-3.106s-1.022-2-2.238-2.2a8.7,8.7,0,0,0-1.747-.077,1.463,1.463,0,0,0-.695-1.536c-1.364-.963-3.739-.963-5.66-.92,1.711-.419,3.407-.886,5.068-1.445,2.554-.852,7.5-2.572,8.036-5.567a.826.826,0,0,1,.031-.275c1.609-.294,3.213-.6,4.822-.9a62.6,62.6,0,0,0,8.1-1.859c1.686-.559,3.964-1.228,4.96-2.755C101.6,1.926,95.58.64,93.194.395ZM51.743,10.152c4.286-.482,8.593-.828,12.909-.939,3.326-.087,7.116-.371,10.452.3q-4.6.78-9.257,1.493-7.331,1.137-14.662,2.307c-.066-1.026-.082-2.052-.061-3.087ZM34.548,16c-5.865.963-11.75,1.888-17.625,2.711-3.065.429-6.13.78-9.246,1.093l-.322.043.3-.1q2.825-.963,5.686-1.869,6.207-1.926,12.557-3.415a217.038,217.038,0,0,1,22-3.853c-.056,1.079-.077,2.158-.041,3.236Q41.194,14.929,34.548,16ZM76.2,12.449a27.085,27.085,0,0,1-6.13,2.3c-3.065.828-6.171,1.5-9.282,2.129-2.978.226-5.957.51-8.925.833-.153-.612-.271-1.218-.373-1.82q8.031-1.315,16.066-2.6,5.134-.819,10.217-1.734a12.527,12.527,0,0,1-1.573.891Z" transform="translate(0.024 0.001)" fill="#001427"/>
  </g>
</svg>
