<svg xmlns="http://www.w3.org/2000/svg" width="17.497" height="17.496" viewBox="0 0 17.497 17.496">
  <g id="Group_12" data-name="Group 12" transform="translate(-6073.515 -33.313)">
    <path id="Icon_metro-lines" data-name="Icon metro-lines" d="M29.27,19.338H9.456a1.254,1.254,0,0,0-1.1,1.364,1.254,1.254,0,0,0,1.1,1.364H29.27a1.254,1.254,0,0,0,1.1-1.364A1.254,1.254,0,0,0,29.27,19.338Z" transform="translate(6083.21 13.732) rotate(45)"/>
    <path id="Icon_metro-lines-2" data-name="Icon metro-lines" d="M29.27,19.338H9.456a1.254,1.254,0,0,0-1.1,1.364,1.254,1.254,0,0,0,1.1,1.364H29.27a1.254,1.254,0,0,0,1.1-1.364A1.254,1.254,0,0,0,29.27,19.338Z" transform="translate(6110.593 43.008) rotate(135)"/>
  </g>
</svg>
